HIERARCHY
ROOT hip
{
	OFFSET 0.000000 0.000000 0.000000 
	CHANNELS 6 Xposition Yposition Zposition Xrotation Zrotation Yrotation
	JOINT abdomen
	{
		OFFSET 0.000000 3.402643 0.000000 
		CHANNELS 3 Xrotation Zrotation Yrotation
		JOINT chest
		{
			OFFSET 0.000000 8.438565 -0.680529 
			CHANNELS 3 Xrotation Zrotation Yrotation
			JOINT neck
			{
				OFFSET 0.000000 10.207942 -0.272212 
				CHANNELS 3 Xrotation Zrotation Yrotation
				JOINT head
				{
					OFFSET 0.000000 3.130431 0.000000 
					CHANNELS 3 Xrotation Zrotation Yrotation
					End Site
					{
						OFFSET 0.000000 3.130435 0.000000 
					}
				}
			}
			JOINT lCollar
			{
				OFFSET 3.470700 6.669187 -0.816635 
				CHANNELS 3 Yrotation Zrotation Xrotation
				JOINT lShldr
				{
					OFFSET 3.198488 0.000000 0.000000 
					CHANNELS 3 Zrotation Yrotation Xrotation
					JOINT lForeArm
					{
						OFFSET 10.139888 0.000000 0.000000 
						CHANNELS 3 Yrotation Zrotation Xrotation
						JOINT lHand
						{
							OFFSET 8.370511 0.000000 0.000000 
							CHANNELS 3 Zrotation Yrotation Xrotation
							End Site
							{
								OFFSET 4.083176 0.000000 0.000000 
							}
						}
					}
				}
			}
			JOINT rCollar
			{
				OFFSET -3.470700 6.669187 -0.816635 
				CHANNELS 3 Yrotation Zrotation Xrotation
				JOINT rShldr
				{
					OFFSET -3.198488 0.000000 0.000000 
					CHANNELS 3 Zrotation Yrotation Xrotation
					JOINT rForeArm
					{
						OFFSET -10.139888 0.000000 0.000000 
						CHANNELS 3 Yrotation Zrotation Xrotation
						JOINT rHand
						{
							OFFSET -8.370511 0.000000 0.000000 
							CHANNELS 3 Zrotation Yrotation Xrotation
							End Site
							{
								OFFSET -4.083176 0.000000 0.000000 
							}
						}
					}
				}
			}
		}
	}
	JOINT lThigh
	{
		OFFSET 5.308129 -1.633274 1.361059 
		CHANNELS 3 Xrotation Zrotation Yrotation
		JOINT lShin
		{
			OFFSET -2.041588 -20.007561 0.000000 
			CHANNELS 3 Xrotation Zrotation Yrotation
			JOINT lFoot
			{
				OFFSET 0.000000 -19.190928 -1.224953 
				CHANNELS 3 Xrotation Yrotation Zrotation
				End Site
				{
					OFFSET 0.000000 -2.449906 4.627600 
				}
			}
		}
	}
	JOINT rThigh
	{
		OFFSET -5.308129 -1.633274 1.361059 
		CHANNELS 3 Xrotation Zrotation Yrotation
		JOINT rShin
		{
			OFFSET 2.041588 -20.007561 0.000000 
			CHANNELS 3 Xrotation Zrotation Yrotation
			JOINT rFoot
			{
				OFFSET 0.000000 -19.190928 -1.224953 
				CHANNELS 3 Xrotation Yrotation Zrotation
				End Site
				{
					OFFSET 0.000000 -2.449906 4.627600 
				}
			}
		}
	}
}
MOTION
Frames: 6
Frame Time: 0.011111
23.659977 47.082691 -106.938919 5.429013 2.321288 2.722023 20.654762 0.351436 -0.699236 -26.056871 2.782591 -0.296901 -13.136871 -2.088152 -0.222588 19.872627 4.828293 -0.012875 -7.198545 -2.255300 -0.324897 -62.339115 -37.851387 27.839327 -73.420845 8.617187 18.808960 8.524705 12.647240 -19.495495 5.113256 1.510366 0.237230 77.845490 0.791043 -38.093178 39.571941 -4.597836 4.247243 -8.533279 -12.636986 0.736476 13.181122 1.904546 2.004537 38.335117 -4.810057 -5.888703 12.139934 16.279345 -5.859622 -39.062199 -3.701022 2.721451 42.609722 4.426563 6.370547 -9.676574 7.622733 4.659426 
23.666248 47.211422 -106.140160 5.233306 1.879841 2.388449 20.962440 0.792288 -0.174910 -26.085583 2.595638 -0.193560 -13.302119 -2.073797 -0.193864 19.948992 5.123581 0.102556 -7.198545 -2.255300 -0.324897 -62.752247 -37.261990 27.625896 -73.151695 8.669208 18.668592 8.524705 12.647240 -19.104870 5.113256 1.510366 0.237230 77.716553 1.563127 -36.716648 39.602200 -4.610234 4.262874 -8.533279 -12.636986 1.537258 11.100496 2.500230 2.245523 42.418957 -4.485078 -6.355865 13.244744 19.455904 -6.970794 -37.757729 -3.017295 2.408368 42.904873 4.407223 6.417824 -10.285172 8.049255 4.812196 
23.664268 47.340149 -105.329506 4.998504 1.458241 2.156765 21.240995 1.211237 0.258102 -25.987150 2.367536 -0.110499 -13.371777 -2.073125 -0.229192 19.806944 5.427180 0.061709 -7.198545 -2.255300 -0.324897 -63.119732 -36.706417 27.452688 -72.863297 8.725906 18.517050 8.524705 12.647240 -18.821669 5.113256 1.510366 0.237230 77.619347 2.407221 -34.619747 39.692966 -4.638631 4.284144 -8.533279 -12.636986 2.845851 9.306987 3.103167 2.640231 45.948597 -4.169467 -6.762352 13.793611 19.473402 -7.105686 -36.389816 -2.402038 2.075355 43.269470 4.377939 6.467250 -11.052914 8.600464 5.034836 
23.658655 47.450722 -104.531403 4.705412 1.324858 2.117799 21.595276 1.281780 0.527395 -25.937569 2.089647 -0.035585 -13.394518 -1.995664 -0.366592 19.708338 5.648186 -0.146442 -7.198545 -2.255300 -0.324897 -63.406448 -36.219574 27.475618 -72.384972 8.809118 18.264677 8.524705 12.647240 -18.704479 5.113256 1.510366 0.237230 77.716026 3.271376 -32.626186 39.884861 -4.710362 4.360854 -8.533279 -12.636986 4.154445 7.690694 3.436102 3.060893 49.282520 -3.877111 -7.117548 12.004593 22.401447 -7.474261 -35.172855 -2.157872 1.947470 43.644821 4.348382 6.488795 -11.711700 9.180241 5.249933 
23.647432 47.541489 -103.758057 4.510393 1.402519 2.089441 21.839409 1.025034 0.719310 -25.771357 2.056469 0.042176 -13.461166 -2.228708 -0.497064 19.574068 6.140943 -0.408986 -7.198545 -2.255300 -0.324897 -63.802513 -35.747211 27.628843 -71.897392 8.893913 18.029974 8.524705 12.647240 -18.724012 5.113256 1.510366 0.237230 77.648964 4.481870 -31.932781 39.874592 -4.703776 4.353520 -8.533279 -12.636986 4.281398 6.054177 3.544700 3.554076 52.454094 -3.565599 -7.437170 12.046814 18.377998 -6.386968 -34.075348 -2.167600 1.830484 43.979023 4.328876 6.539108 -12.357358 9.773935 5.521512 
23.624990 47.620373 -102.998894 4.471432 1.212427 1.906986 21.880259 1.014899 1.004241 -25.673906 2.190053 0.122643 -13.341429 -2.552133 -0.559835 19.322897 6.537293 -0.563692 -7.198545 -2.255300 -0.324897 -64.333794 -35.065319 27.822872 -71.427773 8.965788 17.788830 8.524705 12.647240 -18.753309 5.113256 1.510366 0.237230 77.266319 5.708826 -31.117853 39.764008 -4.669312 4.313090 -8.533279 -12.636986 4.173976 4.087666 3.961402 4.146418 55.571892 -3.243755 -7.723013 9.727674 15.694363 -5.298437 -32.977097 -1.826225 1.641298 44.126667 4.323162 6.549592 -12.992569 10.225659 5.727033 
